<mxfile host="app.diagrams.net" agent="Mozilla/5.0 (Windows NT 10.0; Win64; x64) AppleWebKit/537.36 (KHTML, like Gecko) Chrome/134.0.0.0 Safari/537.36" version="26.1.1">
  <diagram name="Page-1" id="cTJQx5I9nAih-toSixyX">
    <mxGraphModel dx="989" dy="570" grid="1" gridSize="10" guides="1" tooltips="1" connect="1" arrows="1" fold="1" page="1" pageScale="1" pageWidth="827" pageHeight="1169" math="0" shadow="0">
      <root>
        <mxCell id="0" />
        <mxCell id="1" parent="0" />
        <mxCell id="2_c0gO8EoTFZuBgwjBUK-1" value="&amp;nbsp;SYSTÈME ODOO - ARCHITECTURE" style="rounded=0;whiteSpace=wrap;html=1;" vertex="1" parent="1">
          <mxGeometry x="310" y="60" width="280" height="60" as="geometry" />
        </mxCell>
        <mxCell id="2_c0gO8EoTFZuBgwjBUK-2" value="Client (Navigateur)" style="rounded=0;whiteSpace=wrap;html=1;" vertex="1" parent="1">
          <mxGeometry x="230" y="160" width="150" height="60" as="geometry" />
        </mxCell>
        <mxCell id="2_c0gO8EoTFZuBgwjBUK-23" style="edgeStyle=orthogonalEdgeStyle;rounded=0;orthogonalLoop=1;jettySize=auto;html=1;exitX=0.5;exitY=1;exitDx=0;exitDy=0;dashed=1;endArrow=none;startFill=0;" edge="1" parent="1" source="2_c0gO8EoTFZuBgwjBUK-3">
          <mxGeometry relative="1" as="geometry">
            <mxPoint x="440" y="260" as="targetPoint" />
          </mxGeometry>
        </mxCell>
        <mxCell id="2_c0gO8EoTFZuBgwjBUK-3" value="Pare-feu / Load Balancer" style="rounded=0;whiteSpace=wrap;html=1;" vertex="1" parent="1">
          <mxGeometry x="490" y="160" width="190" height="60" as="geometry" />
        </mxCell>
        <mxCell id="2_c0gO8EoTFZuBgwjBUK-6" value="" style="endArrow=classic;startArrow=classic;html=1;rounded=0;exitX=1;exitY=0.5;exitDx=0;exitDy=0;dashed=1;" edge="1" parent="1" source="2_c0gO8EoTFZuBgwjBUK-2">
          <mxGeometry width="50" height="50" relative="1" as="geometry">
            <mxPoint x="440" y="240" as="sourcePoint" />
            <mxPoint x="490" y="190" as="targetPoint" />
          </mxGeometry>
        </mxCell>
        <mxCell id="2_c0gO8EoTFZuBgwjBUK-17" value="" style="edgeStyle=orthogonalEdgeStyle;rounded=0;orthogonalLoop=1;jettySize=auto;html=1;dashed=1;" edge="1" parent="1" source="2_c0gO8EoTFZuBgwjBUK-7" target="2_c0gO8EoTFZuBgwjBUK-13">
          <mxGeometry relative="1" as="geometry" />
        </mxCell>
        <mxCell id="2_c0gO8EoTFZuBgwjBUK-7" value="SSL/TLS Termination" style="rounded=0;whiteSpace=wrap;html=1;" vertex="1" parent="1">
          <mxGeometry x="230" y="290" width="140" height="60" as="geometry" />
        </mxCell>
        <mxCell id="2_c0gO8EoTFZuBgwjBUK-16" value="" style="edgeStyle=orthogonalEdgeStyle;rounded=0;orthogonalLoop=1;jettySize=auto;html=1;dashed=1;" edge="1" parent="1">
          <mxGeometry relative="1" as="geometry">
            <mxPoint x="600" y="350" as="sourcePoint" />
            <mxPoint x="600" y="400" as="targetPoint" />
          </mxGeometry>
        </mxCell>
        <mxCell id="2_c0gO8EoTFZuBgwjBUK-8" value="HTTP Ports 80,8080" style="rounded=0;whiteSpace=wrap;html=1;" vertex="1" parent="1">
          <mxGeometry x="535" y="290" width="120" height="60" as="geometry" />
        </mxCell>
        <mxCell id="2_c0gO8EoTFZuBgwjBUK-9" value="" style="endArrow=classic;startArrow=classic;html=1;rounded=0;exitX=1;exitY=0.5;exitDx=0;exitDy=0;dashed=1;entryX=0;entryY=0.5;entryDx=0;entryDy=0;" edge="1" parent="1" source="2_c0gO8EoTFZuBgwjBUK-7" target="2_c0gO8EoTFZuBgwjBUK-8">
          <mxGeometry width="50" height="50" relative="1" as="geometry">
            <mxPoint x="430" y="319.5" as="sourcePoint" />
            <mxPoint x="520" y="320" as="targetPoint" />
          </mxGeometry>
        </mxCell>
        <mxCell id="2_c0gO8EoTFZuBgwjBUK-11" value="Ports 443, 4848, 8443" style="text;html=1;align=center;verticalAlign=middle;resizable=0;points=[];autosize=1;strokeColor=none;fillColor=none;" vertex="1" parent="1">
          <mxGeometry x="380" y="290" width="140" height="30" as="geometry" />
        </mxCell>
        <mxCell id="2_c0gO8EoTFZuBgwjBUK-13" value="OpenResty/Nginx&lt;div&gt;Serveur Web&lt;/div&gt;" style="rounded=0;whiteSpace=wrap;html=1;" vertex="1" parent="1">
          <mxGeometry x="230" y="400" width="140" height="60" as="geometry" />
        </mxCell>
        <mxCell id="2_c0gO8EoTFZuBgwjBUK-14" value="OpenResty/Nginx&lt;div&gt;Serveur Web&lt;/div&gt;" style="rounded=0;whiteSpace=wrap;html=1;" vertex="1" parent="1">
          <mxGeometry x="525" y="400" width="140" height="60" as="geometry" />
        </mxCell>
        <mxCell id="2_c0gO8EoTFZuBgwjBUK-15" value="" style="endArrow=classic;startArrow=classic;html=1;rounded=0;exitX=1;exitY=0.5;exitDx=0;exitDy=0;dashed=1;entryX=0;entryY=0.5;entryDx=0;entryDy=0;" edge="1" parent="1" source="2_c0gO8EoTFZuBgwjBUK-13" target="2_c0gO8EoTFZuBgwjBUK-14">
          <mxGeometry width="50" height="50" relative="1" as="geometry">
            <mxPoint x="392.5" y="429.5" as="sourcePoint" />
            <mxPoint x="502.5" y="429.5" as="targetPoint" />
          </mxGeometry>
        </mxCell>
        <mxCell id="2_c0gO8EoTFZuBgwjBUK-18" value="" style="endArrow=none;html=1;rounded=0;dashed=1;" edge="1" parent="1">
          <mxGeometry width="50" height="50" relative="1" as="geometry">
            <mxPoint x="300" y="262" as="sourcePoint" />
            <mxPoint x="603" y="262" as="targetPoint" />
          </mxGeometry>
        </mxCell>
        <mxCell id="2_c0gO8EoTFZuBgwjBUK-19" value="" style="endArrow=none;html=1;rounded=0;dashed=1;" edge="1" parent="1">
          <mxGeometry width="50" height="50" relative="1" as="geometry">
            <mxPoint x="300" y="290" as="sourcePoint" />
            <mxPoint x="300" y="260" as="targetPoint" />
          </mxGeometry>
        </mxCell>
        <mxCell id="2_c0gO8EoTFZuBgwjBUK-21" value="" style="endArrow=none;html=1;rounded=0;dashed=1;" edge="1" parent="1">
          <mxGeometry width="50" height="50" relative="1" as="geometry">
            <mxPoint x="603" y="290" as="sourcePoint" />
            <mxPoint x="603" y="260" as="targetPoint" />
          </mxGeometry>
        </mxCell>
        <mxCell id="2_c0gO8EoTFZuBgwjBUK-43" style="edgeStyle=orthogonalEdgeStyle;rounded=0;orthogonalLoop=1;jettySize=auto;html=1;exitX=1;exitY=0.5;exitDx=0;exitDy=0;entryX=0;entryY=0.5;entryDx=0;entryDy=0;dashed=1;endArrow=none;startFill=0;" edge="1" parent="1" source="2_c0gO8EoTFZuBgwjBUK-24" target="2_c0gO8EoTFZuBgwjBUK-25">
          <mxGeometry relative="1" as="geometry" />
        </mxCell>
        <mxCell id="2_c0gO8EoTFZuBgwjBUK-24" value="PowerDNS&lt;div&gt;Port 53&lt;/div&gt;" style="rounded=0;whiteSpace=wrap;html=1;" vertex="1" parent="1">
          <mxGeometry x="230" y="550" width="120" height="60" as="geometry" />
        </mxCell>
        <mxCell id="2_c0gO8EoTFZuBgwjBUK-44" style="edgeStyle=orthogonalEdgeStyle;rounded=0;orthogonalLoop=1;jettySize=auto;html=1;exitX=1;exitY=0.5;exitDx=0;exitDy=0;entryX=0;entryY=0.5;entryDx=0;entryDy=0;dashed=1;endArrow=none;startFill=0;" edge="1" parent="1" source="2_c0gO8EoTFZuBgwjBUK-25" target="2_c0gO8EoTFZuBgwjBUK-26">
          <mxGeometry relative="1" as="geometry" />
        </mxCell>
        <mxCell id="2_c0gO8EoTFZuBgwjBUK-25" value="Node.js&lt;div&gt;Port 12174&lt;/div&gt;" style="rounded=0;whiteSpace=wrap;html=1;" vertex="1" parent="1">
          <mxGeometry x="390" y="550" width="120" height="60" as="geometry" />
        </mxCell>
        <mxCell id="2_c0gO8EoTFZuBgwjBUK-26" value="ODOO Application Server&lt;div&gt;(Instanciation Database)&lt;/div&gt;" style="rounded=0;whiteSpace=wrap;html=1;" vertex="1" parent="1">
          <mxGeometry x="550" y="550" width="190" height="60" as="geometry" />
        </mxCell>
        <mxCell id="2_c0gO8EoTFZuBgwjBUK-27" value="vsFTPd&lt;div&gt;Port 11111&lt;/div&gt;" style="rounded=0;whiteSpace=wrap;html=1;" vertex="1" parent="1">
          <mxGeometry x="665" y="660" width="120" height="60" as="geometry" />
        </mxCell>
        <mxCell id="2_c0gO8EoTFZuBgwjBUK-28" value="OpenSSH&lt;div&gt;Port 11110&lt;/div&gt;" style="rounded=0;whiteSpace=wrap;html=1;" vertex="1" parent="1">
          <mxGeometry x="510" y="660" width="120" height="60" as="geometry" />
        </mxCell>
        <mxCell id="2_c0gO8EoTFZuBgwjBUK-29" value="Administration Système a distance" style="rounded=0;whiteSpace=wrap;html=1;" vertex="1" parent="1">
          <mxGeometry x="510" y="760" width="120" height="60" as="geometry" />
        </mxCell>
        <mxCell id="2_c0gO8EoTFZuBgwjBUK-30" value="Transfert Fichiers Configuration" style="rounded=0;whiteSpace=wrap;html=1;" vertex="1" parent="1">
          <mxGeometry x="665" y="760" width="120" height="60" as="geometry" />
        </mxCell>
        <mxCell id="2_c0gO8EoTFZuBgwjBUK-31" value="" style="edgeStyle=orthogonalEdgeStyle;rounded=0;orthogonalLoop=1;jettySize=auto;html=1;dashed=1;entryX=0.5;entryY=0;entryDx=0;entryDy=0;" edge="1" parent="1" target="2_c0gO8EoTFZuBgwjBUK-29">
          <mxGeometry relative="1" as="geometry">
            <mxPoint x="569.5" y="720" as="sourcePoint" />
            <mxPoint x="570" y="750" as="targetPoint" />
          </mxGeometry>
        </mxCell>
        <mxCell id="2_c0gO8EoTFZuBgwjBUK-33" value="" style="edgeStyle=orthogonalEdgeStyle;rounded=0;orthogonalLoop=1;jettySize=auto;html=1;dashed=1;entryX=0.5;entryY=0;entryDx=0;entryDy=0;" edge="1" parent="1">
          <mxGeometry relative="1" as="geometry">
            <mxPoint x="724.49" y="720" as="sourcePoint" />
            <mxPoint x="724.99" y="760" as="targetPoint" />
          </mxGeometry>
        </mxCell>
        <mxCell id="2_c0gO8EoTFZuBgwjBUK-34" value="" style="endArrow=none;html=1;rounded=0;dashed=1;" edge="1" parent="1">
          <mxGeometry width="50" height="50" relative="1" as="geometry">
            <mxPoint x="290" y="480" as="sourcePoint" />
            <mxPoint x="600" y="480" as="targetPoint" />
          </mxGeometry>
        </mxCell>
        <mxCell id="2_c0gO8EoTFZuBgwjBUK-35" value="" style="endArrow=none;html=1;rounded=0;entryX=0.431;entryY=1.029;entryDx=0;entryDy=0;entryPerimeter=0;dashed=1;" edge="1" parent="1" target="2_c0gO8EoTFZuBgwjBUK-13">
          <mxGeometry width="50" height="50" relative="1" as="geometry">
            <mxPoint x="290" y="480" as="sourcePoint" />
            <mxPoint x="340" y="430" as="targetPoint" />
          </mxGeometry>
        </mxCell>
        <mxCell id="2_c0gO8EoTFZuBgwjBUK-36" value="" style="endArrow=none;html=1;rounded=0;entryX=0.5;entryY=1;entryDx=0;entryDy=0;dashed=1;" edge="1" parent="1">
          <mxGeometry width="50" height="50" relative="1" as="geometry">
            <mxPoint x="599" y="480" as="sourcePoint" />
            <mxPoint x="598.9999999999998" y="460" as="targetPoint" />
          </mxGeometry>
        </mxCell>
        <mxCell id="2_c0gO8EoTFZuBgwjBUK-37" value="" style="endArrow=none;html=1;rounded=0;dashed=1;" edge="1" parent="1">
          <mxGeometry width="50" height="50" relative="1" as="geometry">
            <mxPoint x="291" y="522" as="sourcePoint" />
            <mxPoint x="631" y="522" as="targetPoint" />
          </mxGeometry>
        </mxCell>
        <mxCell id="2_c0gO8EoTFZuBgwjBUK-38" value="" style="endArrow=none;html=1;rounded=0;dashed=1;" edge="1" parent="1">
          <mxGeometry width="50" height="50" relative="1" as="geometry">
            <mxPoint x="290" y="550" as="sourcePoint" />
            <mxPoint x="290" y="520" as="targetPoint" />
          </mxGeometry>
        </mxCell>
        <mxCell id="2_c0gO8EoTFZuBgwjBUK-39" value="" style="endArrow=none;html=1;rounded=0;dashed=1;" edge="1" parent="1">
          <mxGeometry width="50" height="50" relative="1" as="geometry">
            <mxPoint x="630" y="550" as="sourcePoint" />
            <mxPoint x="630" y="520" as="targetPoint" />
          </mxGeometry>
        </mxCell>
        <mxCell id="2_c0gO8EoTFZuBgwjBUK-40" value="" style="endArrow=classic;html=1;rounded=0;dashed=1;" edge="1" parent="1">
          <mxGeometry width="50" height="50" relative="1" as="geometry">
            <mxPoint x="450" y="480" as="sourcePoint" />
            <mxPoint x="450" y="520" as="targetPoint" />
          </mxGeometry>
        </mxCell>
        <mxCell id="2_c0gO8EoTFZuBgwjBUK-41" value="" style="endArrow=classic;html=1;rounded=0;entryX=0.462;entryY=-0.006;entryDx=0;entryDy=0;exitX=0.5;exitY=1;exitDx=0;exitDy=0;entryPerimeter=0;dashed=1;" edge="1" parent="1" source="2_c0gO8EoTFZuBgwjBUK-26" target="2_c0gO8EoTFZuBgwjBUK-28">
          <mxGeometry width="50" height="50" relative="1" as="geometry">
            <mxPoint x="639" y="612" as="sourcePoint" />
            <mxPoint x="460" y="620" as="targetPoint" />
            <Array as="points">
              <mxPoint x="567" y="630" />
            </Array>
          </mxGeometry>
        </mxCell>
        <mxCell id="2_c0gO8EoTFZuBgwjBUK-42" value="" style="endArrow=classic;html=1;rounded=0;exitX=0.5;exitY=1;exitDx=0;exitDy=0;entryX=0.5;entryY=0;entryDx=0;entryDy=0;dashed=1;" edge="1" parent="1" source="2_c0gO8EoTFZuBgwjBUK-26" target="2_c0gO8EoTFZuBgwjBUK-27">
          <mxGeometry width="50" height="50" relative="1" as="geometry">
            <mxPoint x="410" y="670" as="sourcePoint" />
            <mxPoint x="460" y="620" as="targetPoint" />
            <Array as="points">
              <mxPoint x="720" y="630" />
            </Array>
          </mxGeometry>
        </mxCell>
      </root>
    </mxGraphModel>
  </diagram>
</mxfile>
